<svg xmlns="http://www.w3.org/2000/svg" viewBox="0 0 1632 2205" width="1632" height="2205">
	<defs>
		<clipPath clipPathUnits="userSpaceOnUse" id="cp1">
			<path d="M-1041 -298L879 -298L879 7239L-1041 7239Z" />
		</clipPath>
		<linearGradient id="grd1" gradientUnits="userSpaceOnUse"  x1="1003.648" y1="2079.473" x2="474.836" y2="105.92">
			<stop offset="0" stop-color="#1f9561"  />
			<stop offset="1" stop-color="#6853ac"  />
		</linearGradient>
	</defs>
	<style>
		tspan { white-space:pre }
		.shp0 { fill: url(#grd1) } 
	</style>
	<g id="Home Page – 3 copy" clip-path="url(#cp1)">
		<g id="blob-shape (8) copy" style="opacity: 0.941">
			<path id="-e-Tracé 1314 copy" class="shp0" d="M1164.28,1908.69c252.51,-184.23 387.34,-370.4 439.2,-551.67c51.86,-181.27 21.29,-357.79 -29.38,-522.35c-50.26,-165.27 -120.48,-318.01 -270.33,-500.23c-149.14,-181.81 -377.36,-393.25 -478.73,-316.47c-101.22,77.33 -75.05,442.74 -221.35,704.31c-146.31,261.58 -464.68,418.62 -565.16,690.63c-100.47,272.01 17.53,658.83 260.71,761.05c243.74,102.07 613.23,-80.63 865.04,-265.26z" />
		</g>
	</g>
</svg>