<svg xmlns="http://www.w3.org/2000/svg" viewBox="0 0 27 26" width="27" height="26">
	<defs>
		<clipPath clipPathUnits="userSpaceOnUse" id="cp1">
			<path d="M-1485 -7212L435 -7212L435 325L-1485 325Z" />
		</clipPath>
	</defs>
	<style>
		tspan { white-space:pre }
		.shp0 { fill: #ffffff } 
	</style>
	<g id="Home Page – 3 copy" clip-path="url(#cp1)">
		<path id="-e-Tracé 1199 copy" class="shp0" d="M26.58,2.24l-8.94,22.87c-0.21,0.55 -0.72,0.89 -1.3,0.89c-0.06,0 -0.12,0 -0.17,-0.01c-0.64,-0.08 -1.14,-0.56 -1.22,-1.2l-1.51,-11.18c0,-0.02 -0.02,-0.04 -0.04,-0.04l-11.18,-1.51c-0.64,-0.09 -1.13,-0.58 -1.2,-1.22c-0.08,-0.64 0.28,-1.24 0.88,-1.47l22.87,-8.94c0.52,-0.21 1.1,-0.09 1.5,0.31c0,0 0,0 0,0c0,0 0,0 0,0c0.4,0.4 0.51,0.97 0.31,1.5zM2.4,10.72c0,0 11.31,1.53 11.38,1.55l10.01,-10.01l-21.4,8.37c-0.02,0.01 -0.03,0.01 -0.03,0.05c0,0.04 0.02,0.04 0.04,0.04zM24.74,3.22l-10.01,10.01c0.02,0.07 1.55,11.38 1.55,11.38c0,0.03 0,0.04 0.04,0.04c0.04,0 0.04,-0.01 0.05,-0.03z" />
	</g>
</svg>