<svg xmlns="http://www.w3.org/2000/svg" viewBox="0 0 81 78" width="81" height="78">
	<defs>
		<clipPath clipPathUnits="userSpaceOnUse" id="cp1">
			<path d="M-1485 -7212L435 -7212L435 325L-1485 325Z" />
		</clipPath>
	</defs>
	<style>
		tspan { white-space:pre }
		.shp0 { fill: #ffffff } 
	</style>
	<g id="Home Page – 3 copy" clip-path="url(#cp1)">
		<path id="-e-Tracé 1199 copy" class="shp0" d="M79.73,6.71l-26.83,68.61c-0.64,1.65 -2.17,2.68 -3.89,2.68c-0.17,0 -0.35,-0.01 -0.52,-0.03c-1.93,-0.23 -3.41,-1.68 -3.67,-3.61l-4.52,-33.53c-0.01,-0.06 -0.06,-0.11 -0.12,-0.12l-33.53,-4.52c-1.93,-0.26 -3.38,-1.73 -3.61,-3.67c-0.23,-1.93 0.83,-3.71 2.64,-4.42l68.61,-26.83c1.57,-0.62 3.29,-0.26 4.49,0.93c0.01,0 0.01,0.01 0.01,0.01c0.01,0.01 0.01,0.01 0.01,0.01c1.19,1.2 1.54,2.92 0.93,4.49zM7.19,32.15c0,0 33.94,4.59 34.13,4.65l30.02,-30.02l-64.19,25.1c-0.07,0.03 -0.1,0.04 -0.09,0.15c0.01,0.11 0.05,0.11 0.12,0.12zM74.22,9.65l-30.02,30.02c0.06,0.2 4.65,34.14 4.65,34.14c0.01,0.08 0.01,0.11 0.12,0.12c0.11,0.01 0.12,-0.02 0.15,-0.09z" />
	</g>
</svg>