<svg xmlns="http://www.w3.org/2000/svg" viewBox="0 0 263 399" width="263" height="399">
	<defs>
		<clipPath clipPathUnits="userSpaceOnUse" id="cp1">
			<path d="M-980 -282L940 -282L940 7255L-980 7255Z" />
		</clipPath>
		<linearGradient id="grd1" gradientUnits="userSpaceOnUse"  x1="144.424" y1="0.294" x2="123.362" y2="402.177">
			<stop offset="0" stop-color="#1f9561"  />
			<stop offset="1" stop-color="#6853ac"  />
		</linearGradient>
	</defs>
	<style>
		tspan { white-space:pre }
		.shp0 { fill: url(#grd1) } 
	</style>
	<g id="Home Page – 3 copy" clip-path="url(#cp1)">
		<g id="blob-shape (7) copy" style="opacity: 0.941">
			<path id="-e-Tracé 1315 copy" class="shp0" d="M173.96,5.67c-26.33,-15.5 -66.67,9.22 -82.35,42.65c-15.77,33.42 -6.86,75.54 -24.2,117.9c-17.45,42.45 -61.14,85.12 -66.59,133.7c-5.45,48.58 27.24,103.07 67.12,98.85c39.88,-4.32 101.07,-61.24 133.64,-97.98c32.57,-36.85 47.97,-69.34 47.97,-69.34c9.23,-13.68 16.35,-36.89 11.15,-54.09c-5.2,-17.3 -10.61,-44.37 -24.41,-79.04c-13.8,-34.67 -36,-77.04 -62.32,-92.63z" />
		</g>
	</g>
</svg>