<svg xmlns="http://www.w3.org/2000/svg" viewBox="0 0 54 52" width="54" height="52">
	<defs>
		<clipPath clipPathUnits="userSpaceOnUse" id="cp1">
			<path d="M-1485 -7212L435 -7212L435 325L-1485 325Z" />
		</clipPath>
	</defs>
	<style>
		tspan { white-space:pre }
		.shp0 { fill: #ffffff } 
	</style>
	<g id="Home Page – 3 copy" clip-path="url(#cp1)">
		<path id="-e-Tracé 1199 copy" class="shp0" d="M53.16,4.48l-17.88,45.74c-0.43,1.1 -1.45,1.78 -2.6,1.78c-0.12,0 -0.23,-0.01 -0.35,-0.02c-1.29,-0.15 -2.27,-1.12 -2.44,-2.41l-3.02,-22.36c0,-0.04 -0.04,-0.08 -0.08,-0.08l-22.35,-3.01c-1.29,-0.17 -2.26,-1.16 -2.41,-2.45c-0.16,-1.29 0.55,-2.47 1.76,-2.95l45.74,-17.88c1.05,-0.41 2.2,-0.17 2.99,0.62c0,0 0.01,0.01 0.01,0.01c0,0 0.01,0.01 0.01,0.01c0.79,0.8 1.03,1.95 0.62,2.99zM4.79,21.43c0,0 22.63,3.06 22.76,3.1l20.02,-20.02l-42.79,16.73c-0.05,0.02 -0.07,0.03 -0.06,0.1c0.01,0.07 0.03,0.08 0.08,0.08zM49.48,6.43l-20.02,20.01c0.04,0.13 3.1,22.76 3.1,22.76c0.01,0.05 0.01,0.07 0.08,0.08c0.07,0.01 0.08,-0.01 0.1,-0.06z" />
	</g>
</svg>