<svg xmlns="http://www.w3.org/2000/svg" viewBox="0 0 526 798" width="526" height="798">
	<defs>
		<clipPath clipPathUnits="userSpaceOnUse" id="cp1">
			<path d="M-980 -282L940 -282L940 7255L-980 7255Z" />
		</clipPath>
		<linearGradient id="grd1" gradientUnits="userSpaceOnUse"  x1="288.848" y1="0.587" x2="246.724" y2="804.354">
			<stop offset="0" stop-color="#1f9561"  />
			<stop offset="1" stop-color="#6853ac"  />
		</linearGradient>
	</defs>
	<style>
		tspan { white-space:pre }
		.shp0 { fill: url(#grd1) } 
	</style>
	<g id="Home Page – 3 copy" clip-path="url(#cp1)">
		<g id="blob-shape (7) copy" style="opacity: 0.941">
			<path id="-e-Tracé 1315 copy" class="shp0" d="M347.91,11.34c-52.65,-31 -133.35,18.45 -164.69,85.3c-31.54,66.84 -13.73,151.09 -48.41,235.79c-34.89,84.89 -122.28,170.23 -133.18,267.4c-10.9,97.16 54.49,206.13 134.24,197.7c79.76,-8.64 202.14,-122.48 267.27,-195.97c65.15,-73.69 95.94,-138.68 95.94,-138.68c18.46,-27.36 32.71,-73.79 22.29,-108.18c-10.4,-34.59 -21.22,-88.74 -48.83,-158.08c-27.61,-69.34 -72,-154.07 -124.64,-185.27z" />
		</g>
	</g>
</svg>